<!-- Generated by IcoMoon.io -->
<svg version="1.1" xmlns="http://www.w3.org/2000/svg" width="1024" height="1024" viewBox="0 0 1024 1024" fill="white">
<path d="M999.485 577.595c-6.945 52.264-22.244 102.8-45.319 150.008-23.844 48.808-55.593 93.327-94.447 132.149-37.734 37.734-80.685 68.843-128.052 92.367-43.431 21.635-89.838 36.774-137.846 44.839l45.159 19.875c1.888 0.8 2.688 3.008 1.888 4.897-0.48 1.248-1.568 1.888-2.848 2.208-0.64 0.16-1.44 0-2.048-0.32l-56.841-24.932c-1.12-0.48-1.888-1.568-2.208-2.848-0.16-1.248 0.32-2.528 1.248-3.297l46.759-40.902c1.568-1.248 3.809-1.12 5.217 0.32 1.248 1.568 1.248 3.809-0.32 5.217l-37.286 32.677c99.792-16.899 190.27-63.466 262.121-135.317 75.788-75.788 123.315-171.963 137.526-277.9 0.32-2.048 2.048-3.489 4.097-3.168s3.489 2.048 3.168 4.097zM444.581 25.252l-56.841-24.932c-0.64-0.32-1.44-0.32-2.048-0.32-1.248 0.16-2.208 0.928-2.848 2.208-0.8 1.888 0 4.097 1.888 4.897l45.159 19.875c-48.008 8.033-94.447 23.204-137.846 44.839-47.207 23.524-90.318 54.633-128.052 92.367-38.534 38.694-70.443 83.053-94.127 132.021-23.076 47.207-38.214 97.743-45.319 150.008-0.32 2.048 1.12 3.809 3.168 4.097 0.16 0 0.32 0 0.48 0 1.728 0 3.489-1.44 3.617-3.168 14.21-105.969 61.738-202.112 137.526-277.9 71.851-71.851 162.17-118.419 261.961-135.157l-37.286 32.677c-1.568 1.248-1.728 3.617-0.32 5.217 1.248 1.568 3.617 1.728 5.217 0.32l46.759-40.902c0.928-0.8 1.44-2.048 1.248-3.297s-1.12-2.368-2.368-2.848z"></path>
</svg>
