<!-- Generated by IcoMoon.io -->
<svg version="1.1" xmlns="http://www.w3.org/2000/svg" width="1024" height="1024" viewBox="0 0 1024 1024" fill="white">
<path d="M262.68 1024c-18.015 0-32.607-14.56-32.607-32.607v-958.786c0-18.015 14.56-32.607 32.607-32.607h498.64c18.015 0 32.607 14.56 32.607 32.607v958.786c0 18.015-14.56 32.607-32.607 32.607h-498.64zM262.68 14.112c-10.144 0-18.527 8.416-18.527 18.527v958.786c0 10.144 8.416 18.527 18.527 18.527h498.64c10.144 0 18.527-8.416 18.527-18.527v-958.786c0-10.144-8.416-18.527-18.527-18.527h-498.64zM313.814 857.765c-18.015 0-32.607-14.56-32.607-32.607v-677.451c0-18.015 14.56-32.607 32.607-32.607h396.404c18.015 0 32.607 14.56 32.607 32.607v677.707c0 18.015-14.56 32.607-32.607 32.607h-396.404zM313.814 129.212c-10.144 0-18.527 8.416-18.527 18.527v677.707c0 10.144 8.416 18.527 18.527 18.527h396.404c10.144 0 18.527-8.416 18.527-18.527v-677.707c0-10.144-8.416-18.527-18.527-18.527h-396.404zM454.354 78.078c-3.936 0-6.912-3.232-6.912-6.912 0-3.936 3.232-6.912 6.912-6.912h115.1c3.936 0 6.912 3.232 6.912 6.912 0 3.936-3.232 6.912-6.912 6.912h-115.1zM511.888 972.898c-24.927 0-45.439-20.255-45.439-45.439 0-24.927 20.255-45.439 45.439-45.439s45.439 20.255 45.439 45.439c0 25.183-20.511 45.439-45.439 45.439zM511.888 896.292c-17.279 0-31.359 14.080-31.359 31.359s14.080 31.359 31.359 31.359c17.279 0 31.359-14.080 31.359-31.359 0-17.535-14.080-31.359-31.359-31.359z"></path>
</svg>
